<svg width="667" height="600" viewBox="0 0 667 600" fill="none" xmlns="http://www.w3.org/2000/svg">
<path d="M0 33.3333C0 24.4928 3.51189 16.0143 9.76311 9.76311C16.0143 3.51189 24.4928 0 33.3333 0H633.333C642.174 0 650.652 3.51189 656.904 9.76311C663.155 16.0143 666.667 24.4928 666.667 33.3333C666.667 42.1739 663.155 50.6523 656.904 56.9036C650.652 63.1548 642.174 66.6667 633.333 66.6667H33.3333C24.4928 66.6667 16.0143 63.1548 9.76311 56.9036C3.51189 50.6523 0 42.1739 0 33.3333ZM33.3333 333.333H633.333C642.174 333.333 650.652 329.821 656.904 323.57C663.155 317.319 666.667 308.841 666.667 300C666.667 291.159 663.155 282.681 656.904 276.43C650.652 270.179 642.174 266.667 633.333 266.667H33.3333C24.4928 266.667 16.0143 270.179 9.76311 276.43C3.51189 282.681 0 291.159 0 300C0 308.841 3.51189 317.319 9.76311 323.57C16.0143 329.821 24.4928 333.333 33.3333 333.333ZM33.3333 600H633.333C642.174 600 650.652 596.488 656.904 590.237C663.155 583.986 666.667 575.507 666.667 566.667C666.667 557.826 663.155 549.348 656.904 543.096C650.652 536.845 642.174 533.333 633.333 533.333H33.3333C24.4928 533.333 16.0143 536.845 9.76311 543.096C3.51189 549.348 0 557.826 0 566.667C0 575.507 3.51189 583.986 9.76311 590.237C16.0143 596.488 24.4928 600 33.3333 600Z" fill="black"/>
</svg>
