<svg width="800" height="800" viewBox="0 0 800 800" fill="none" xmlns="http://www.w3.org/2000/svg">
<g filter="url(#filter0_d_44_2)">
<path d="M692.5 400V669.75C692.517 672.742 691.939 675.708 690.802 678.476C689.665 681.243 687.99 683.758 685.874 685.874C683.758 687.99 681.243 689.665 678.476 690.802C675.708 691.94 672.742 692.517 669.75 692.5H130.25C127.258 692.517 124.292 691.94 121.524 690.802C118.757 689.665 116.242 687.99 114.126 685.874C112.01 683.758 110.335 681.243 109.198 678.476C108.061 675.708 107.483 672.742 107.5 669.75V130.25C107.483 127.258 108.061 124.292 109.198 121.524C110.335 118.757 112.01 116.242 114.126 114.126C116.242 112.011 118.757 110.335 121.524 109.198C124.292 108.061 127.258 107.484 130.25 107.5H400" stroke="currentColor" stroke-width="37.5"/>
<path d="M504 107.5H692.5V302.25" stroke="currentColor" stroke-width="37.5"/>
<path d="M241.5 571.5L682.625 111.375" stroke="currentColor" stroke-width="37.5"/>
</g>
<defs>
<filter id="filter0_d_44_2" x="-4" y="0" width="808" height="808" filterUnits="userSpaceOnUse" color-interpolation-filters="sRGB">
<feFlood flood-opacity="0" result="BackgroundImageFix"/>
<feColorMatrix in="SourceAlpha" type="matrix" values="0 0 0 0 0 0 0 0 0 0 0 0 0 0 0 0 0 0 127 0" result="hardAlpha"/>
<feOffset dy="4"/>
<feGaussianBlur stdDeviation="2"/>
<feComposite in2="hardAlpha" operator="out"/>
<feColorMatrix type="matrix" values="0 0 0 0 0 0 0 0 0 0 0 0 0 0 0 0 0 0 0.25 0"/>
<feBlend mode="normal" in2="BackgroundImageFix" result="effect1_dropShadow_44_2"/>
<feBlend mode="normal" in="SourceGraphic" in2="effect1_dropShadow_44_2" result="shape"/>
</filter>
</defs>
</svg>
