<svg width="800" height="800" viewBox="0 0 800 800" fill="none" xmlns="http://www.w3.org/2000/svg">
<g clip-path="url(#clip0_15_7)">
<path fill-rule="evenodd" clip-rule="evenodd" d="M636.6 354.609C507.68 278.049 295 270.999 171.88 308.359C152.12 314.319 131.24 303.198 125.24 283.398C119.24 263.638 130.4 242.758 150.16 236.758C291.48 193.838 526.36 202.114 674.8 290.234C692.56 300.794 698.4 323.763 687.84 341.523C677.36 359.283 654.32 365.169 636.6 354.609ZM632.4 468.008C623.36 482.688 604.16 487.281 589.48 478.281C482 412.201 318.08 393.08 190.92 431.68C174.4 436.64 157 427.359 152 410.879C147.04 394.399 156.32 376.992 172.8 371.992C318.04 327.912 498.64 349.276 622.12 425.156C636.8 434.156 641.4 453.368 632.4 468.008ZM583.44 576.914C576.24 588.674 560.92 592.395 549.16 585.195C455.24 527.795 337 514.841 197.76 546.641C184.36 549.721 170.96 541.311 167.92 527.871C164.84 514.471 173.2 501.127 186.68 498.047C339.04 463.207 469.72 478.197 575.16 542.637C586.92 549.837 590.64 565.154 583.44 576.914ZM400 0C179.08 0 0 179.08 0 400C0 620.92 179.08 800 400 800C620.92 800 800 620.92 800 400C800 179.12 620.92 0 400 0Z" fill="black"/>
</g>
<defs>
<clipPath id="clip0_15_7">
<rect width="800" height="800" fill="white"/>
</clipPath>
</defs>
</svg>
