<svg width="800" height="800" viewBox="0 0 800 800" fill="none" xmlns="http://www.w3.org/2000/svg">
<g clip-path="url(#clip0_15_18)">
<path d="M346.719 477.031L477.656 400.156L346.719 323.281V477.031Z" fill="black"/>
<path d="M400 0C179.063 0 0 179.063 0 400C0 620.937 179.063 800 400 800C620.937 800 800 620.937 800 400C800 179.063 620.937 0 400 0ZM600 471.562C600 540.469 531.094 540.469 531.094 540.469H268.906C200 540.469 200 471.562 200 471.562V328.594C200 259.687 268.906 259.688 268.906 259.688H531.094C600 259.688 600 328.594 600 328.594V471.562Z" fill="black"/>
</g>
<defs>
<clipPath id="clip0_15_18">
<rect width="800" height="800" fill="white"/>
</clipPath>
</defs>
</svg>
